<?xml version="1.0" encoding="utf-8"?>
<svg width="290.9001px" height="34.83142px" viewBox="0 0 290.9001 34.83142" version="1.1" xmlns:xlink="http://www.w3.org/1999/xlink" xmlns="http://www.w3.org/2000/svg">
  <g id="Samuel-Marndi-Logo-3-Copy" transform="translate(-5.0999146 -32.646606)">
    <g id="ligntning-s" transform="translate(141.24805 32.646606)">
      <path d="M17.494 20.9651C18.5074 20.0058 18.3467 18.6519 17.1379 17.9569L14.8582 16.6448C13.6494 15.9494 12.9228 14.2693 13.2433 12.9121L15.9884 1.27501C16.3085 -0.0821913 15.7417 -0.408379 14.7292 0.550925L0.666197 13.8669C-0.346789 14.8262 -0.186154 16.1797 1.02271 16.8755L3.30193 18.1868C4.51038 18.8826 5.23775 20.5627 4.91771 21.9195L2.17174 33.5566C1.85212 34.9138 2.41843 35.2396 3.43142 34.2807L17.494 20.9651L17.494 20.9651Z" id="SvgjsG5677" fill="#FF5722" fill-rule="evenodd" stroke="none" />
    </g>
    <path d="M179.238 50.4589L192.718 36.9619L192.718 63.9559L188.25 63.9559L188.25 47.8145L179.238 56.8386L165.72 43.2432L165.72 36.9623L179.238 50.4589ZM191.876 63.1128L191.876 38.9975L179.833 51.0552L179.239 51.6502L178.644 51.056L166.563 38.9936L166.563 42.8955L179.24 55.6453L189.093 45.78L189.093 63.113L191.877 63.113L191.876 63.1128ZM208.19 36.9619L217.184 54.9717L212.153 54.9709L208.19 47.0366L204.241 54.9709L199.722 63.956L194.711 63.956L208.19 36.9619ZM208.943 46.6586L212.674 54.127L215.822 54.1278L208.191 38.8454L196.073 63.113L199.204 63.113L203.489 54.5914L207.437 46.6594L208.189 45.1483L208.943 46.6586ZM219.436 59.4838L221.669 63.9552L216.658 63.9552L214.425 59.4838L219.436 59.4838L219.436 59.4838ZM215.787 60.3267L217.178 63.1127L220.308 63.1127L218.916 60.3267L215.787 60.3267L215.787 60.3267ZM233.247 51.0422C232.211 52.5465 230.891 53.6225 229.286 54.2707L234.841 63.9557L229.674 63.9557L221.845 50.4414L225.868 50.4591C227.085 50.4591 228.133 50.0183 229.014 49.1368C229.894 48.2554 230.335 47.1918 230.335 45.9471C230.335 44.7285 229.895 43.6776 229.014 42.7961C228.133 41.9147 227.085 41.4739 225.868 41.4739L216.65 41.4739L214.036 36.9621L225.867 36.9621C228.327 36.9621 230.437 37.8444 232.198 39.6075C233.959 41.3713 234.84 43.4842 234.84 45.9472C234.84 47.8138 234.308 49.5128 233.247 51.0425L233.247 51.0422ZM233.386 63.1135L228.555 54.6895L228.073 53.8501L228.97 53.4885C230.411 52.9071 231.617 51.9227 232.553 50.5634C233.526 49.1628 233.997 47.6534 233.997 45.947C233.997 43.6961 233.214 41.8169 231.602 40.2031C229.99 38.5892 228.114 37.8046 225.866 37.8046L215.496 37.8046L217.135 40.6312L225.868 40.6312C227.309 40.6312 228.569 41.1596 229.609 42.2003C230.649 43.2428 231.176 44.5036 231.176 45.9472C231.176 47.4178 230.649 48.6911 229.609 49.7327C228.569 50.7735 227.309 51.3018 225.867 51.3018L223.309 51.2909L230.158 63.1133L233.386 63.1133L233.386 63.1135ZM256.71 36.9619L261.21 36.9619L261.21 63.9569L238.789 43.7856L238.789 36.962L256.71 53.1199L256.71 36.962L256.71 36.9619ZM260.368 62.066L260.368 37.8042L257.552 37.8042L257.552 55.0119L256.147 53.7453L239.631 38.8543L239.631 43.4092L260.368 62.066ZM286.545 45.2471C287.257 46.8812 287.613 48.618 287.613 50.4578C287.613 52.3 287.257 54.0368 286.545 55.6699C285.833 57.304 284.868 58.7375 283.651 59.9685C282.433 61.2006 281.003 62.1723 279.358 62.8852C277.714 63.599 275.972 63.9555 274.134 63.9555L265.161 63.9555L269.628 59.4437L274.134 59.4437C275.376 59.4437 276.542 59.2102 277.63 58.7434C278.717 58.2765 279.669 57.6284 280.485 56.7984C281.301 55.9691 281.941 55.0092 282.408 53.9204C282.874 52.8307 283.107 51.6779 283.107 50.4584C283.107 49.2407 282.874 48.0861 282.408 46.9973C281.941 45.9085 281.293 44.9487 280.465 44.1194C279.636 43.2893 278.678 42.6413 277.591 42.1744C276.503 41.7066 275.35 41.4741 274.134 41.4741L269.628 41.4741L265.161 36.9622L274.134 36.9622C275.972 36.9622 277.708 37.3195 279.339 38.0315C280.971 38.7453 282.401 39.7178 283.631 40.949C284.861 42.1811 285.832 43.6138 286.545 45.2469L286.545 45.2471ZM285.775 55.3337C286.436 53.8151 286.772 52.1752 286.772 50.4593C286.772 48.7435 286.436 47.1027 285.775 45.5842C285.108 44.0563 284.188 42.6979 283.037 41.5451C281.886 40.3939 280.529 39.472 279.003 38.8046C277.486 38.1413 275.847 37.805 274.135 37.805L267.181 37.805L269.979 40.6316L274.135 40.6316C275.463 40.6316 276.737 40.8903 277.924 41.4002C279.103 41.9058 280.159 42.6205 281.061 43.523C281.962 44.4256 282.675 45.4832 283.182 46.6655C283.691 47.8555 283.949 49.1313 283.949 50.4587C283.949 51.786 283.691 53.0619 283.182 54.2527C282.676 55.4334 281.971 56.4893 281.085 57.3902C280.197 58.2936 279.146 59.0099 277.962 59.5181C276.774 60.0279 275.486 60.2867 274.135 60.2867L269.979 60.2867L267.181 63.1132L274.135 63.1132C275.849 63.1132 277.494 62.777 279.024 62.1129C280.562 61.4463 281.918 60.526 283.054 59.3765C284.191 58.2253 285.107 56.8652 285.775 55.3339L285.775 55.3337ZM291.533 37.0198L296 41.4553L296 59.387L291.533 63.8989L291.533 37.0196L291.533 37.0198ZM295.157 59.0399L295.157 41.8052L292.373 39.0419L292.373 61.8519L295.157 59.0399Z" id="SvgjsG5678" fill="#EEEEEE" fill-rule="evenodd" stroke="none" />
    <path d="M23.4492 51.0168C24.8659 52.5464 25.5735 54.4006 25.5743 56.578C25.5743 58.7312 24.8659 60.5843 23.4492 62.1407C22.0547 63.6712 20.367 64.4355 18.3833 64.4355L18.3833 59.9235C18.8077 59.9235 19.2099 59.8392 19.5874 59.6698C19.965 59.5021 20.2958 59.2687 20.579 58.9703C20.863 58.672 21.0802 58.3146 21.2344 57.9C21.3871 57.4854 21.4647 57.0446 21.4647 56.5778C21.4647 55.6709 21.1577 54.8804 20.5437 54.2054C19.9535 53.5312 19.2336 53.194 18.3832 53.194L12.2557 53.194C10.2718 53.194 8.58262 52.4288 7.19052 50.8992C5.79605 49.3696 5.09991 47.503 5.09991 45.2984C5.09991 43.146 5.79677 41.3055 7.19052 39.775C8.5605 38.2192 10.2489 37.4406 12.2557 37.4406L12.2557 41.9534C11.8313 41.9534 11.4291 42.0368 11.0515 42.2062C10.674 42.3756 10.3432 42.6149 10.06 42.9259C9.7768 43.2369 9.55806 43.6009 9.40456 44.0155C9.25105 44.4301 9.1743 44.8583 9.1743 45.2981C9.1743 46.2319 9.469 47.0359 10.06 47.71C10.6494 48.3842 11.3816 48.7205 12.2557 48.7205L18.3832 48.7205C20.367 48.7205 22.0555 49.4865 23.4494 51.0161L23.4492 51.0168ZM22.9066 61.5447C24.1851 60.1399 24.8059 58.515 24.8066 56.5774C24.8066 54.6164 24.1866 52.994 22.911 51.6163C21.6508 50.2325 20.1712 49.5625 18.3839 49.5625L12.2564 49.5625C11.1697 49.5625 10.2449 49.1361 9.50732 48.2934C8.77745 47.4608 8.40758 46.4529 8.40758 45.2974C8.40758 44.7488 8.50351 44.2104 8.69385 43.6971C8.88574 43.1796 9.16356 42.7186 9.51816 42.3293C9.87194 41.9399 10.291 41.6357 10.7629 41.425C10.997 41.3205 11.2395 41.2413 11.4889 41.189L11.4889 38.3262C10.0254 38.4956 8.79438 39.1656 7.74284 40.3597C6.47804 41.7486 5.86786 43.3599 5.86786 45.2973C5.86786 47.2879 6.47875 48.9245 7.73353 50.3024C8.98832 51.6804 10.4673 52.3503 12.2561 52.3503L18.3836 52.3503C19.4458 52.3503 20.359 52.7776 21.0974 53.6204C21.848 54.4454 22.2333 55.444 22.2333 56.5776C22.2333 57.1506 22.1366 57.7018 21.947 58.2167C21.7498 58.7451 21.4689 59.2027 21.1097 59.5794C20.7567 59.9502 20.3415 60.2435 19.8757 60.4509C19.6424 60.5554 19.3998 60.6346 19.1504 60.6868L19.1504 63.5488C20.601 63.3811 21.8351 62.7204 22.9064 61.5447L22.9066 61.5447ZM37.9619 37.4407L46.1625 55.4506L41.5753 55.4498L37.9619 47.5155L34.3602 55.4498L30.2397 64.435L25.6703 64.435L37.9619 37.4407ZM38.6485 47.1374L42.0499 54.6059L44.921 54.6067L37.9623 39.3242L26.9122 63.5919L29.7672 63.5919L33.6752 55.0703L37.2745 47.1382L37.9606 45.6271L38.6485 47.1374ZM48.2166 59.9627L50.2527 64.4341L45.6832 64.4341L43.6471 59.9627L48.2166 59.9627L48.2166 59.9627ZM44.8891 60.8056L46.1577 63.5917L49.0112 63.5917L47.7425 60.8056L44.8891 60.8056L44.8891 60.8056ZM59.1296 50.9378L71.4212 37.4407L71.4212 64.4349L67.3474 64.4349L67.3474 48.2933L59.1293 57.3175L46.8027 43.7221L46.8027 37.4411L59.1296 50.9378ZM70.6538 63.5917L70.6537 39.4764L59.6722 51.534L59.1303 52.129L58.5877 51.5349L47.571 39.4724L47.571 43.3743L59.1312 56.1242L68.1154 46.2588L68.1154 63.5919L70.6542 63.5919L70.6538 63.5917ZM91.3597 53.1937L95.4679 53.1928C95.4679 56.3042 94.464 58.963 92.4571 61.1668C90.4255 63.3453 88.0058 64.4341 85.1952 64.4341C82.4086 64.4341 80.0002 63.3453 77.9696 61.1668C75.9857 58.9369 74.9942 56.279 74.9942 53.1928L74.9942 37.4407L79.0679 37.4407L79.0679 53.1937C79.0679 55.0612 79.6581 56.6431 80.8392 57.9393C82.0441 59.2615 83.4962 59.9231 85.196 59.9231C86.8967 59.9231 88.3373 59.2615 89.5177 57.9393C90.7449 56.6171 91.3597 55.0361 91.3597 53.1937L91.3597 53.1937ZM91.9216 60.5646C93.6062 58.7148 94.5127 56.5711 94.6753 54.0352L92.0882 54.0352C91.9225 55.751 91.2409 57.2637 90.0559 58.5397C88.7421 60.0128 87.1035 60.7654 85.1973 60.7654C83.2939 60.7654 81.6461 60.0154 80.2979 58.5347C78.9732 57.0818 78.3017 55.2842 78.3017 53.1933L78.3017 38.2839L75.7628 38.2839L75.7628 53.1933C75.7628 56.078 76.6646 58.4934 78.5196 60.5781C80.406 62.6016 82.5947 63.5918 85.1967 63.5918C87.8229 63.5918 90.0223 62.6016 91.9219 60.5647L91.9216 60.5646ZM99.0419 64.0636L103.115 59.9223L115.406 59.9223L115.406 64.4344L99.0421 64.4344L99.0421 64.0636L99.0419 64.0636ZM114.64 60.766L103.417 60.766L100.636 63.5925L114.64 63.5925L114.64 60.766L114.64 60.766ZM99.0419 37.4407L115.407 37.4407L115.407 41.9528L103.116 41.9528L99.0419 37.4407ZM114.64 41.11L114.64 38.2834L100.884 38.2834L103.436 41.11L114.64 41.11L114.64 41.11ZM99.0419 53.1937L99.0419 48.7204L115.406 48.7204L115.406 53.1937L99.0419 53.1937L99.0419 53.1937ZM99.8093 49.563L99.8093 52.3508L114.639 52.3508L114.639 49.563L99.8093 49.563L99.8093 49.563ZM123.089 59.9233L135.38 59.9233L135.38 64.4354L119.016 64.4354L123.089 59.9233ZM134.614 63.5925L134.614 60.7659L123.409 60.7659L120.857 63.5925L134.613 63.5925L134.614 63.5925ZM123.089 37.4407L123.089 53.8127L119.016 58.3245L119.016 37.4407L123.089 37.4407L123.089 37.4407ZM122.322 53.4656L122.322 38.2824L119.783 38.2824L119.783 56.2768L122.322 53.4656Z" id="SvgjsG5676" fill="#EEEEEE" fill-rule="evenodd" stroke="none" />
  </g>
</svg>